<svg id="Layer_1" data-name="Layer 1" xmlns="http://www.w3.org/2000/svg" viewBox="0 0 101 101"><title>log_Artboard 2 copy 2</title><path d="M79,64A12,12,0,0,0,67.05,75H31.11a2.63,2.63,0,0,1-1.89-4.45L73.87,30.63A5.62,5.62,0,0,0,69.93,21h-32a12,12,0,1,0-.13,3H69.93a2.63,2.63,0,0,1,1.89,4.45L27.17,68.37A5.62,5.62,0,0,0,31.11,78H67.18A12,12,0,1,0,79,64ZM26,31a9,9,0,1,1,9-9A9,9,0,0,1,26,31ZM79,85a9,9,0,1,1,9-9A9,9,0,0,1,79,85Z"/><path d="M83.89,71.7a1.5,1.5,0,0,0-2.12,0l-2.58,2.58L76.6,71.7a1.5,1.5,0,0,0-2.12,2.12l2.58,2.58L74.48,79a1.5,1.5,0,1,0,2.12,2.12l2.58-2.58,2.58,2.58A1.5,1.5,0,0,0,83.89,79l-2.58-2.58,2.58-2.58A1.5,1.5,0,0,0,83.89,71.7Z"/><circle cx="26" cy="22" r="3.5"/></svg>