<svg id="Layer_1" data-name="Layer 1" xmlns="http://www.w3.org/2000/svg" viewBox="0 0 101 101"><title>log_Artboard 2 copy 11</title><path d="M98.11,52.09l-17.4-9.67a3.06,3.06,0,0,0-1.88-.06c-9.9,5-25.76,12.85-29.08,14.2-3.4-1.39-19.17-9.21-29-14.17a1.51,1.51,0,0,0-1.44,0L2.86,52.11a1.5,1.5,0,0,0,.09,2.63c6.75,3.4,12,6,16.05,8V77.57a1.5,1.5,0,0,0,.78,1.32L48,94.39a1.46,1.46,0,0,0,2,1,1.48,1.48,0,0,0,1.88-1L80.22,78.89A1.5,1.5,0,0,0,81,77.58V63.5a1.49,1.49,0,0,0,0-.24c4.21-2.07,9.76-4.82,17.08-8.51a1.5,1.5,0,0,0,.05-2.65Zm-78-6.65c15.71,7.91,23.06,11.44,26.57,13L33.4,66.27c-3-1.18-16.73-8-26.65-13ZM22,64.22c10.62,5.17,11.29,5.18,11.58,5.18a1.5,1.5,0,0,0,.76-.21l13.65-8V90.94L22,76.68ZM78,76.69,51,91.5v-31l15.69,8.71a1.51,1.51,0,0,0,.73.19c.29,0,.91,0,10.58-4.69ZM67.58,66.28l-14.38-8c3.66-1.66,11.11-5.25,26.49-13l14.48,8C84.24,58.32,70.49,65.12,67.58,66.28Z"/><path d="M48.94,45.06a1.5,1.5,0,0,0,2.12,0l7-7a1.5,1.5,0,0,0-2.12-2.12L52,39.88V9.5a1.5,1.5,0,0,0-3,0V40.88l-4.94-4.94a1.5,1.5,0,0,0-2.12,2.12Z"/><path d="M26.94,37.06a1.5,1.5,0,0,0,2.12,0l5.58-5.58a1.5,1.5,0,0,0-2.12-2.12L30,31.88V8.5a1.5,1.5,0,0,0-3,0V32.88l-3.52-3.52a1.5,1.5,0,0,0-2.12,2.12Z"/><path d="M70.94,36.06a1.5,1.5,0,0,0,2.12,0l5.58-5.58a1.5,1.5,0,0,0-2.12-2.12L74,30.88V7.5a1.5,1.5,0,0,0-3,0V31.88l-3.52-3.52a1.5,1.5,0,0,0-2.12,2.12Z"/></svg>