<svg id="Layer_1" data-name="Layer 1" xmlns="http://www.w3.org/2000/svg" viewBox="0 0 101 101"><title>log_Artboard 2 copy 5</title><path d="M8.5,53h84a1.5,1.5,0,0,0,0-3H8.5a1.5,1.5,0,0,0,0,3Z"/><path d="M21.5,46h20A1.5,1.5,0,0,0,43,44.5v-20A1.5,1.5,0,0,0,41.5,23h-20A1.5,1.5,0,0,0,20,24.5v20A1.5,1.5,0,0,0,21.5,46ZM23,26h7v4.5a1.5,1.5,0,0,0,3,0V26h7V43H23Z"/><path d="M58.5,46h20A1.5,1.5,0,0,0,80,44.5v-20A1.5,1.5,0,0,0,78.5,23h-20A1.5,1.5,0,0,0,57,24.5v20A1.5,1.5,0,0,0,58.5,46ZM60,26h7v4.5a1.5,1.5,0,0,0,3,0V26h7V43H60Z"/><path d="M14,63.5A6.5,6.5,0,1,0,20.5,57,6.51,6.51,0,0,0,14,63.5Zm10,0A3.5,3.5,0,1,1,20.5,60,3.5,3.5,0,0,1,24,63.5Z"/><path d="M34,63.5A6.5,6.5,0,1,0,40.5,57,6.51,6.51,0,0,0,34,63.5Zm10,0A3.5,3.5,0,1,1,40.5,60,3.5,3.5,0,0,1,44,63.5Z"/><path d="M54,63.5A6.5,6.5,0,1,0,60.5,57,6.51,6.51,0,0,0,54,63.5Zm10,0A3.5,3.5,0,1,1,60.5,60,3.5,3.5,0,0,1,64,63.5Z"/><path d="M74,63.5A6.5,6.5,0,1,0,80.5,57,6.51,6.51,0,0,0,74,63.5Zm10,0A3.5,3.5,0,1,1,80.5,60,3.5,3.5,0,0,1,84,63.5Z"/><path d="M93.5,74H8.5a1.5,1.5,0,0,0,0,3h85a1.5,1.5,0,0,0,0-3Z"/></svg>